<svg xmlns="http://www.w3.org/2000/svg" width="934.976" height="200" viewBox="0 0 934.976 200"><g transform="translate(-569.024 -107)"><g transform="translate(568.651 107.001)"><path d="M131.438,96.17c19.728-11.494,40.547-26.027,54.277-44.7a110.924,110.924,0,0,0-37.428,6.182c2.8-1,4.971-6.827,6.251-9.393a56.561,56.561,0,0,0,4.132-10.811,34.193,34.193,0,0,0-.077-20.366,25.939,25.939,0,0,0-24.2-16.7c-11.175-.221-22.4,0-33.589,0H47.391c-10.459,0-24.412-2.053-33.873,3.294a25.805,25.805,0,0,0-9.1,35.8C11.37,50.561,22.609,51.47,34.377,51.47c-3.445,10.3-9.623,19.438-15.07,28.735A136.152,136.152,0,0,0,3.877,115.83C.129,130.84-2.138,148.63,5.189,162.9c6.466,12.556,19.2,22.378,33.658,22.668,30.223.607,60.532.086,90.761,0a31.1,31.1,0,0,0,27.921-15.35c8.416-15.728-6.076-35.734-22.9-35.734H95.171a73.994,73.994,0,0,1,5.019-13.677,22.935,22.935,0,0,1,8.164-9.63A262.517,262.517,0,0,1,131.438,96.17ZM91.676,125.113c-.234.224-.447.44-.665.658C91.231,125.544,91.442,125.339,91.676,125.113Zm-2.555-8.021q-.484,1.179-.919,2.3c.288-.753.59-1.516.916-2.3Zm1.235-2.9c-.27.614-.532,1.22-.782,1.814q.375-.894.779-1.814Zm40.287-48.076c.2-.121.4-.24.607-.361C131.048,65.874,130.84,65.992,130.643,66.113ZM118.938,74.7c.2-.175.4-.355.611-.526C119.341,74.343,119.142,74.523,118.938,74.7Zm3.538-2.892.874-.674Zm3.93-2.9c.3-.208.607-.412.906-.617C127.013,68.491,126.706,68.712,126.406,68.9ZM107.294,86.544l-.238.281Zm-2.416,3.017c-.186.24-.374.479-.555.718C104.5,90.04,104.692,89.8,104.878,89.561Zm-2.466,3.318c-.212.282-.414.567-.6.852C102.007,93.441,102.208,93.156,102.412,92.878Zm-2.34,3.4c-.183.275-.354.547-.533.821C99.719,96.828,99.89,96.556,100.072,96.281ZM97.895,99.7l-.262.438Zm-4.731,8.525c-.2.4-.406.8-.595,1.184C92.76,109.021,92.965,108.622,93.164,108.229Zm-1.444,2.963c-.243.514-.485,1.029-.715,1.533C91.234,112.22,91.477,111.706,91.72,111.192Zm-3.7,8.649c-1.6,4.173-4.447,9.981-4.447,14.579a29.67,29.67,0,0,1,1.871-2.536c-.669.84-1.312,1.7-1.915,2.6a95.75,95.75,0,0,1,4.491-14.642Zm1.682,7.251c-.2.21-.411.425-.6.639.2-.213.408-.428.612-.639Zm-2.033,2.175c-.17.189-.32.357-.472.536Zm-1.239,1.424c-.178.208-.348.412-.507.607.181-.2.339-.4.517-.607Zm7.245,25.862a33.174,33.174,0,0,0,10.1,18.626,32.836,32.836,0,0,1-10.086-18.633Zm-.374-2.733c.045.459.086.916.148,1.367-.048-.457-.1-.908-.137-1.372ZM108.533,178.9c-.722-.469-1.415-.959-2.1-1.5.693.514,1.375,1.016,2.108,1.488Zm6.989,3.6a39.441,39.441,0,0,1-6.666-3.4,39.509,39.509,0,0,0,6.676,3.4Zm11.453,2.809c.373.042.747.094,1.121.121-.368-.035-.738-.086-1.127-.127Zm-22.953-9.9q.958.888,2.008,1.7c-.683-.552-1.35-1.124-2-1.707Zm12.848,7.625c.517.189,1.044.348,1.571.514-.517-.177-1.051-.342-1.562-.528Zm3.224,1.008q.732.2,1.469.367c-.482-.127-.981-.248-1.459-.38Zm3.35.76c.45.086.9.17,1.353.243-.444-.083-.894-.17-1.34-.256Zm8.825-50.215c.364-.035.731-.038,1.1-.054C133,134.557,132.632,134.56,132.268,134.6Zm-15.2,6.89c-.117.115-.248.218-.367.335A4.931,4.931,0,0,0,117.07,141.485Zm14.026-6.736c-.358.051-.722.086-1.076.149.367-.063.731-.095,1.1-.149Zm-2.235.415c-.32.076-.664.137-.989.227.322-.089.658-.151.987-.227Zm-2.175.6c-.319.1-.612.184-.909.3.294-.113.6-.2.906-.3Zm-2.056.772c-.286.124-.583.234-.868.367.281-.133.579-.243.865-.367Zm-1.944.93c-.281.151-.571.288-.843.444.269-.156.56-.294.84-.444Zm-1.877,1.1c-.263.168-.533.319-.786.5.24-.18.52-.336.782-.5ZM119,139.846c-.229.18-.466.342-.687.528.218-.18.453-.342.674-.52Zm-9.132,14c.083-.319.151-.666.246-.992-.1.332-.165.668-.248,1Zm.639-2.129c.108-.319.2-.639.32-.957-.142.329-.224.647-.333.968Zm.814-2.065c.127-.291.243-.588.383-.871a7.99,7.99,0,0,0-.38.877Zm1-2c.143-.259.27-.523.421-.775-.162.257-.291.523-.434.782Zm1.248-2.027c.124-.181.232-.37.364-.55-.143.186-.253.374-.371.557Zm1.485-1.973c.1-.114.189-.232.286-.348-.111.121-.2.24-.3.355Zm-20.649-5.8c.215-1.06.447-2.11.709-3.151C94.852,135.741,94.619,136.792,94.4,137.851Zm-1.108,8.126c.051-.744.14-1.472.218-2.2C93.444,144.506,93.345,145.234,93.294,145.978Zm.441-4.183c.13-.957.294-1.916.466-2.849Q93.938,140.358,93.735,141.795Zm.105-18.751c.162-.153.348-.319.514-.469C94.188,122.727,94,122.89,93.84,123.043Zm6.065-5.3c.164-.134.32-.259.474-.393C100.215,117.485,100.069,117.612,99.906,117.744Zm-3.445,2.938c.282-.247.566-.5.859-.748C97.026,120.186,96.743,120.434,96.461,120.681Zm0,0" transform="translate(0 0)" fill="#f6db6d"/><path d="M26.346,1.035a25.542,25.542,0,0,0,0,51.084H134.9a25.542,25.542,0,0,1,0-51.084Zm0,0" transform="translate(-0.271 -0.648)" fill="#f6db6d"/><path d="M250.307,359.434A64.369,64.369,0,0,0,248.27,375.4a35.094,35.094,0,0,0,1.336,9.579h8.9a6.285,6.285,0,0,0,6.21-4.972,25.543,25.543,0,0,1,25.059-20.571Zm0,0" transform="translate(-155.146 -224.951)" fill="#ec9130"/><path d="M291.873,359.434a25.542,25.542,0,0,0-24.9,20.492,6.328,6.328,0,0,1-6.226,5.051h-8.9c4.6,16.362,20.752,25.542,36.978,25.542,19.025,0,39-20.8,22.757-40.9a25.666,25.666,0,0,0-19.7-10.182Zm0,0" transform="translate(-157.38 -224.951)" fill="#f6ab27"/><path d="M149.492,57.946a55.88,55.88,0,0,0,10.951-31.369A25.542,25.542,0,1,0,134.9,52.119H34.648C26.43,76.7.8,96.819.8,144.71c0,22.35,19.156,41.506,38.312,41.506h92.591c-19.156,0-38.314-12.771-38.314-35.121a69.733,69.733,0,0,1,10.1-35.379c-15.166,11.913-19.674,19.415-19.674,19.415S95.065,76.8,149.493,57.946Zm0,0" transform="translate(-0.271 -0.649)" fill="#f4cd1e"/><path d="M107.443,33.022H97.864a3.193,3.193,0,0,1,0-6.385h9.579a3.193,3.193,0,1,1,0,6.385Zm0,0" transform="translate(-59.017 -16.671)" fill="#faedbd"/><path d="M30.677,42.6a3.1,3.1,0,0,1-.8-.1,3.192,3.192,0,0,1-2.292-3.888A15.961,15.961,0,0,1,43.041,26.637a3.193,3.193,0,1,1,0,6.385,9.577,9.577,0,0,0-9.259,7.183A3.191,3.191,0,0,1,30.677,42.6Zm0,0" transform="translate(-16.965 -16.671)" fill="#faedbd"/><g transform="translate(10.112 51.47)"><path d="M87.067,357.188a3.193,3.193,0,0,1-1.77-.536L79.091,352.5a2.873,2.873,0,0,0-3.193,0l-2.841,1.89a9.26,9.26,0,0,1-10.283,0l-2.835-1.89a2.873,2.873,0,0,0-3.193,0l-2.841,1.89a9.26,9.26,0,0,1-10.283,0l-2.849-1.878a2.874,2.874,0,0,0-3.193,0l-6.209,4.151a3.193,3.193,0,1,1-3.544-5.313l6.21-4.151a9.26,9.26,0,0,1,10.283,0l2.835,1.89a2.871,2.871,0,0,0,3.192,0l2.843-1.89a9.26,9.26,0,0,1,10.283,0l2.835,1.89a2.871,2.871,0,0,0,3.192,0l2.843-1.89a9.26,9.26,0,0,1,10.283,0l6.207,4.151a3.192,3.192,0,0,1-1.766,5.836Zm0,0" transform="translate(-26.403 -267.79)" fill="#445c71"/><path d="M104.155,288.9a3.186,3.186,0,0,1-1.768-.536l-6.207-4.151a2.873,2.873,0,0,0-3.193,0L90.145,286.1a9.26,9.26,0,0,1-10.283,0l-2.835-1.891a2.873,2.873,0,0,0-3.193,0L70.991,286.1a9.26,9.26,0,0,1-10.283,0l-2.835-1.891a2.873,2.873,0,0,0-3.193,0l-6.21,4.151a3.193,3.193,0,1,1-3.543-5.313l6.209-4.151a9.262,9.262,0,0,1,10.285,0l2.835,1.89a2.871,2.871,0,0,0,3.192,0l2.841-1.89a9.262,9.262,0,0,1,10.285,0l2.835,1.89a2.871,2.871,0,0,0,3.192,0l2.841-1.89a9.262,9.262,0,0,1,10.285,0l6.207,4.151a3.193,3.193,0,0,1-1.779,5.849Zm0,0" transform="translate(-37.106 -225.044)" fill="#445c71"/><path d="M129.753,229.166a3.192,3.192,0,0,1-1.768-.536l-6.207-4.149a2.871,2.871,0,0,0-3.192,0l-2.841,1.89a9.262,9.262,0,0,1-10.285,0l-2.835-1.89a2.871,2.871,0,0,0-3.192,0l-2.841,1.89a9.262,9.262,0,0,1-10.285,0l-2.835-1.89a2.871,2.871,0,0,0-3.192,0l-6.21,4.149a3.193,3.193,0,0,1-3.544-5.313l6.21-4.151a9.26,9.26,0,0,1,10.283,0l2.835,1.891a2.879,2.879,0,0,0,3.193,0l2.841-1.891a9.26,9.26,0,0,1,10.283,0l2.835,1.891a2.879,2.879,0,0,0,3.193,0l2.841-1.891a9.26,9.26,0,0,1,10.283,0l6.207,4.151a3.193,3.193,0,0,1-1.779,5.849Zm0,0" transform="translate(-53.126 -187.66)" fill="#445c71"/><path d="M324.947,137.566c-80.425,27.842-100.923,79.661-102.1,82.853C223.609,216.492,240.913,137.566,324.947,137.566Zm0,0" transform="translate(-149.345 -137.566)" fill="#445c71"/></g><path d="M324.891,137.566s-15.964,22.35-54.277,44.7c-36.877,21.52-47.126,37.1-47.861,38.25a.125.125,0,0,1,.034-.1c1.181-3.192,21.679-55.011,102.1-82.853Zm0,0" transform="translate(-139.176 -86.096)" fill="#394f63"/></g><text transform="translate(793 242)" fill="#394f63" font-size="152" font-family="AlexBrush-Regular, Alex Brush"><tspan x="0" y="0">Dofus Quest</tspan></text></g></svg>